<?xml version="1.0" encoding="utf-8"?>
<!-- Generator: Adobe Illustrator 26.3.1, SVG Export Plug-In . SVG Version: 6.00 Build 0)  -->
<svg version="1.1" id="Layer_1" xmlns="http://www.w3.org/2000/svg" xmlns:xlink="http://www.w3.org/1999/xlink" x="0px" y="0px"
	 viewBox="0 0 66.1 54.7" style="enable-background:new 0 0 66.1 54.7;" xml:space="preserve">
<style type="text/css">
	.st0{fill:url(#SVGID_1_);}
	.st1{fill:url(#SVGID_00000096024281669436174160000004906325851706966435_);}
	.st2{fill:url(#SVGID_00000045585110932261505390000015929833393481102498_);}
</style>
<g>
	<linearGradient id="SVGID_1_" gradientUnits="userSpaceOnUse" x1="2.3265" y1="22.7824" x2="63.857" y2="22.7824">
		<stop  offset="0" style="stop-color:#C9107A"/>
		<stop  offset="1" style="stop-color:#9A0162"/>
	</linearGradient>
	<path class="st0" d="M33.4,34.7c4.3,0,8.5,0,12.6,0c1.1,0,2.3,0.2,2.8-1.1c0.6-1.3-0.1-2.4-0.9-3.3c-3.8-4.7-7.7-9.4-11.5-14.1
		c-0.7-0.9-1.5-1.8-2.3-2.6c-0.7-0.7-1.4-0.7-2,0c-2.1,2.3-4,4.8-6,7.2c-2.3,2.8-4.6,5.5-6.9,8.2c-0.6,0.8-1.3,1.5-1.7,2.4
		c-1,1.9-0.2,3.3,2,3.3c4.1,0,8.1,0,12.2,0c0.3,0,0.7,0,1.1,0c-0.6,1.6-1.8,2.6-2.7,3.9c-1.3,1.8-2.9,3.5-4.3,5.3
		c-0.4,0.6-0.9,0.6-1.4,0.6c-5.2,0-10.4,0-15.6,0c-2.4,0-4.5-0.9-5.6-3.1c-1.2-2.3-0.9-4.6,0.6-6.7c2.1-3.1,4.7-5.9,7.1-8.8
		c2.5-3.1,5.1-6.2,7.6-9.2c2.2-2.7,4.5-5.5,6.7-8.2c1.4-1.7,2.9-3.4,4.4-5.2c1.6-1.9,3.7-2.6,5.3-1.6c1.3,0.8,2.4,1.9,3.4,3.1
		c2.6,3.1,5.2,6.3,7.7,9.5c3.1,3.7,6.1,7.5,9.2,11.2c2.2,2.6,4.4,5.2,6.5,7.8c1.8,2.3,3,4.7,1.8,7.8c-0.9,2.3-2.9,3.4-5.1,3.5
		c-5.5,0.2-11,0.1-16.5,0.1c-0.5,0-0.8-0.1-1.2-0.6c-2.2-2.8-4.4-5.5-6.6-8.2C33.7,35.4,33.6,35.1,33.4,34.7z"/>
	
		<linearGradient id="SVGID_00000078012322159022074340000004499043387691244943_" gradientUnits="userSpaceOnUse" x1="1.2348" y1="50.8664" x2="64.9442" y2="50.8664">
		<stop  offset="0" style="stop-color:#C9107A"/>
		<stop  offset="1" style="stop-color:#9A0162"/>
	</linearGradient>
	<path style="fill:url(#SVGID_00000078012322159022074340000004499043387691244943_);" d="M64.9,46.7C64.8,48,64.1,49,63.6,50
		c-0.9,1.6-1.6,3.4-3.5,4.3c-0.8,0.4-1.6,0.6-2.5,0.6c-3,0-5.9,0-8.9,0C35.9,55,23,54.8,10,55c-3.9,0.1-6.1-1.7-7.6-5
		c-0.4-0.9-0.8-1.8-1.2-2.8c0.9,0,1.4,0.6,1.8,1.1c1.6,2,3.6,2.8,6.1,2.8c15.3-0.1,30.7-0.1,46,0.1c4,0.1,6.9-1.3,9.2-4.3
		C64.6,46.9,64.7,46.9,64.9,46.7z"/>
	
		<linearGradient id="SVGID_00000114033000767618690500000017259962206420978095_" gradientUnits="userSpaceOnUse" x1="28.2539" y1="28.3915" x2="37.8204" y2="28.3915">
		<stop  offset="0" style="stop-color:#C9107A"/>
		<stop  offset="1" style="stop-color:#9A0162"/>
	</linearGradient>
	<path style="fill:url(#SVGID_00000114033000767618690500000017259962206420978095_);" d="M37.8,28.2c0,2.6-1.1,4.5-3.4,5.8
		c-1.3,0.7-3.7-0.1-4.7-1.4c-2.1-2.8-2-6.3,0.3-8.9c1.7-2,5.6-1.3,7,1.3C37.5,26,37.8,27.1,37.8,28.2z"/>
</g>
</svg>
