<svg xmlns="http://www.w3.org/2000/svg" xmlns:xlink="http://www.w3.org/1999/xlink" width="59.72" height="55.068" viewBox="0 0 59.72 55.068">
  <defs>
    <linearGradient id="linear-gradient" x1="0.5" x2="0.5" y2="1" gradientUnits="objectBoundingBox">
      <stop offset="0" stop-color="#c9107a"/>
      <stop offset="1" stop-color="#9a0162"/>
    </linearGradient>
  </defs>
  <g id="Group_1187" data-name="Group 1187" transform="translate(102.994 -340.923)">
    <g id="Group_1185" data-name="Group 1185" transform="translate(-92.467 340.923)">
      <path id="Path_315" data-name="Path 315" d="M-82.293,342.526a19.433,19.433,0,0,0-5.842,4.181c.813.358,1.627.7,2.439.992A19.921,19.921,0,0,1-82.293,342.526Z" transform="translate(93.498 -340.812)" fill="url(#linear-gradient)"/>
      <path id="Path_316" data-name="Path 316" d="M-87.923,359.956H-93.15a19.251,19.251,0,0,0,3.914,10.628c1.022-.469,2.046-.9,3.069-1.278A30.2,30.2,0,0,1-87.923,359.956Z" transform="translate(93.15 -339.602)" fill="url(#linear-gradient)"/>
      <path id="Path_317" data-name="Path 317" d="M-65.6,348.507c-1.988-4.222-5.022-7.088-8.474-7.584v8.983A32.544,32.544,0,0,0-65.6,348.507Z" transform="translate(94.474 -340.923)" fill="url(#linear-gradient)"/>
      <path id="Path_318" data-name="Path 318" d="M-88.136,371.539a19.455,19.455,0,0,0,5.843,4.182,19.917,19.917,0,0,1-3.4-5.175C-86.509,370.843-87.322,371.181-88.136,371.539Z" transform="translate(93.498 -338.868)" fill="url(#linear-gradient)"/>
      <path id="Path_319" data-name="Path 319" d="M-86.167,349.295c-1.023-.376-2.046-.808-3.069-1.278a19.251,19.251,0,0,0-3.914,10.629h5.227A30.209,30.209,0,0,1-86.167,349.295Z" transform="translate(93.15 -340.431)" fill="url(#linear-gradient)"/>
      <path id="Path_320" data-name="Path 320" d="M-74.072,377.571c3.452-.5,6.487-3.362,8.475-7.584a32.559,32.559,0,0,0-8.475-1.4Z" transform="translate(94.474 -339.004)" fill="url(#linear-gradient)"/>
      <path id="Path_321" data-name="Path 321" d="M-83.983,370.013c1.988,4.208,5.018,7.063,8.461,7.557v-8.977A33.346,33.346,0,0,0-83.983,370.013Z" transform="translate(93.786 -339.003)" fill="url(#linear-gradient)"/>
      <path id="Path_322" data-name="Path 322" d="M-75.522,340.923c-3.443.494-6.472,3.35-8.461,7.557a33.362,33.362,0,0,0,8.461,1.42Z" transform="translate(93.786 -340.923)" fill="url(#linear-gradient)"/>
      <path id="Path_323" data-name="Path 323" d="M-75.364,351.431a35.457,35.457,0,0,1-9.282-1.587,28.41,28.41,0,0,0-1.615,8.675h10.9Z" transform="translate(93.628 -340.304)" fill="url(#linear-gradient)"/>
      <path id="Path_324" data-name="Path 324" d="M-74.072,367.037a34.579,34.579,0,0,1,9.294,1.561,28.433,28.433,0,0,0,1.6-8.643h-10.9Z" transform="translate(94.474 -339.602)" fill="url(#linear-gradient)"/>
      <path id="Path_325" data-name="Path 325" d="M-63.174,358.517a28.434,28.434,0,0,0-1.6-8.644,34.586,34.586,0,0,1-9.294,1.561v7.082Z" transform="translate(94.474 -340.302)" fill="url(#linear-gradient)"/>
      <path id="Path_326" data-name="Path 326" d="M-86.261,359.956a28.409,28.409,0,0,0,1.615,8.674,35.458,35.458,0,0,1,9.282-1.587v-7.087Z" transform="translate(93.628 -339.602)" fill="url(#linear-gradient)"/>
      <path id="Path_327" data-name="Path 327" d="M-67.472,375.723a19.432,19.432,0,0,0,5.854-4.191c-.812-.365-1.623-.709-2.438-1.009A19.906,19.906,0,0,1-67.472,375.723Z" transform="translate(94.932 -338.869)" fill="url(#linear-gradient)"/>
      <path id="Path_328" data-name="Path 328" d="M-61.767,358.645h5.228a19.253,19.253,0,0,0-3.911-10.623c-1.019.477-2.04.918-3.065,1.3A30.211,30.211,0,0,1-61.767,358.645Z" transform="translate(95.206 -340.43)" fill="url(#linear-gradient)"/>
      <path id="Path_329" data-name="Path 329" d="M-63.514,369.279c1.024.382,2.046.821,3.066,1.3a19.257,19.257,0,0,0,3.91-10.622h-5.228A30.2,30.2,0,0,1-63.514,369.279Z" transform="translate(95.206 -339.602)" fill="url(#linear-gradient)"/>
      <path id="Path_330" data-name="Path 330" d="M-61.619,346.716a19.46,19.46,0,0,0-5.852-4.191,19.948,19.948,0,0,1,3.415,5.2C-63.243,347.425-62.43,347.082-61.619,346.716Z" transform="translate(94.932 -340.812)" fill="url(#linear-gradient)"/>
    </g>
    <path id="Path_331" data-name="Path 331" d="M-80.969,383.423a8.142,8.142,0,0,0-2.442-3.976l-10.62-7.338a1.77,1.77,0,0,0-2.552.289c-.668.869-.638,2.32.934,3.6l3.042,2.316c1.132.863,1.574,1.636,1.212,2.12-.215.287-.7.405-1.415-.122l-3.69-2.855a5.111,5.111,0,0,1-1.286-1.366,4.679,4.679,0,0,1-.66-4.079,3.3,3.3,0,0,1,1.938-2l-2.5-9.042a2.868,2.868,0,0,0-1.773-2.3,1.651,1.651,0,0,0-1.646.277,2.272,2.272,0,0,0-.481,2.234l3.08,14.946a3.563,3.563,0,0,0,1.155,2.213l10.237,9.739c1.7,1.618,1.874,1.838,2.374,4.274l.5,2.418h9.012Z" transform="translate(0 1.224)" fill="url(#linear-gradient)"/>
    <g id="Group_1186" data-name="Group 1186" transform="translate(-69.483 359.907)">
      <path id="Path_332" data-name="Path 332" d="M-47.674,358.779a2.811,2.811,0,0,0-1.732,2.254l-2.449,9.016a3.328,3.328,0,0,1,1.947,2.007,4.64,4.64,0,0,1-.643,4.042,5.007,5.007,0,0,1-1.276,1.358l-3.654,2.827c-.721.53-1.2.411-1.419.123-.363-.483.075-1.251,1.2-2.108l3.03-2.306c1.542-1.254,1.567-2.694.9-3.559a1.764,1.764,0,0,0-2.541-.306L-64.9,379.436a7.961,7.961,0,0,0-2.365,3.89l-.011.031-4.384,11.4h9.006l.5-2.506c.487-2.424.657-2.642,2.345-4.25l10.117-9.638a3.525,3.525,0,0,0,1.17-2.223l2.988-14.863a2.265,2.265,0,0,0-.5-2.226A1.663,1.663,0,0,0-47.674,358.779Z" transform="translate(71.657 -358.675)" fill="url(#linear-gradient)"/>
    </g>
  </g>
</svg>
