<svg xmlns="http://www.w3.org/2000/svg" xmlns:xlink="http://www.w3.org/1999/xlink" width="43.506" height="52.601" viewBox="0 0 43.506 52.601">
  <defs>
    <linearGradient id="linear-gradient" x1="0.5" x2="0.5" y2="1" gradientUnits="objectBoundingBox">
      <stop offset="0" stop-color="#c9107a"/>
      <stop offset="1" stop-color="#9a0162"/>
    </linearGradient>
  </defs>
  <g id="Group_1200" data-name="Group 1200" transform="translate(203.948 265.316)">
    <g id="Group_1348" data-name="Group 1348">
      <g id="Group_1197" data-name="Group 1197">
        <g id="Group_1196" data-name="Group 1196">
          <path id="Path_349" data-name="Path 349" d="M-172.8-256.351a2.224,2.224,0,0,0-.85.182.642.642,0,0,0-.218.149,1.755,1.755,0,0,0-.29,2.284,1.753,1.753,0,0,0,2.236.545.639.639,0,0,0,.218-.15,1.755,1.755,0,0,0,.29-2.284A1.665,1.665,0,0,0-172.8-256.351Z" fill="url(#linear-gradient)"/>
          <path id="Path_350" data-name="Path 350" d="M-172.785-252.678a1.987,1.987,0,0,1-1.649-.871,2.094,2.094,0,0,1,.321-2.7.981.981,0,0,1,.332-.228,2.111,2.111,0,0,1,2.632.662,2.093,2.093,0,0,1-.321,2.7.98.98,0,0,1-.332.228A2.574,2.574,0,0,1-172.785-252.678Z" fill="url(#linear-gradient)"/>
        </g>
      </g>
      <path id="Path_351" data-name="Path 351" d="M-161.079-216.431l-12.674-12.675-3.08,3.08,12.675,12.675a2.171,2.171,0,0,0,1.539.636,2.17,2.17,0,0,0,1.54-.636A2.181,2.181,0,0,0-161.079-216.431Z" fill="url(#linear-gradient)"/>
      <g id="Group_1198" data-name="Group 1198">
        <path id="Path_352" data-name="Path 352" d="M-162.469-247.484l-1.956-12.216a3.934,3.934,0,0,0-3.165-3.239l-12.515-2.31a3.912,3.912,0,0,0-3.494,1.087l-19.2,19.222a3.931,3.931,0,0,0,0,5.553l7.55,7.548a13.919,13.919,0,0,1-.151-1.938,13.88,13.88,0,0,1,.6-4.032l-4.357-4.356,18.542-18.561,11.775,2.173L-167-247.075l-4.081,4.083a13.922,13.922,0,0,1,2.473,3.946l5.039-5.041A3.937,3.937,0,0,0-162.469-247.484Zm-6.439-11.5v0Z" fill="url(#linear-gradient)"/>
      </g>
      <g id="Group_1199" data-name="Group 1199">
        <path id="Path_353" data-name="Path 353" d="M-181.52-246.463a12.685,12.685,0,0,0-12.67,12.67,12.684,12.684,0,0,0,12.67,12.669,12.684,12.684,0,0,0,12.67-12.669A12.685,12.685,0,0,0-181.52-246.463Zm0,21.267a8.6,8.6,0,0,1-8.6-8.6,8.6,8.6,0,0,1,8.6-8.6,8.6,8.6,0,0,1,8.6,8.6A8.6,8.6,0,0,1-181.52-225.2Z" fill="url(#linear-gradient)"/>
      </g>
      <path id="Path_354" data-name="Path 354" d="M-175.794-238.279l-10.211,10.213a7.244,7.244,0,0,0,4.485,1.556c.135,0,.266-.013.4-.02l6.864-6.867c.007-.132.02-.262.02-.4A7.239,7.239,0,0,0-175.794-238.279Z" fill="url(#linear-gradient)"/>
    </g>
  </g>
</svg>
