<svg xmlns="http://www.w3.org/2000/svg" data-name="Group 1116" width="25.534" height="25.534"><rect id="backgroundrect" width="100%" height="100%" x="0" y="0" fill="none" stroke="none"/>
  
  
<g class="currentLayer" style=""><title>Layer 1</title><path id="Path_17" data-name="Path 17" d="M12.767,0A12.767,12.767,0,1,0,25.534,12.767,12.767,12.767,0,0,0,12.767,0M1.233,12.767A11.534,11.534,0,1,1,12.767,24.3,11.534,11.534,0,0,1,1.233,12.767" class="" fill="#ffffff" fill-opacity="1"/><path id="Path_18" data-name="Path 18" d="M18.802000610351563,5.6580018615722665 a0.21500000000000002,0.21500000000000002 0 0 0 -0.14900000000000002,0.06000000000000001 l-5.9,5.893 L6.8600006103515625,5.721001861572269 a0.21300000000000002,0.21300000000000002 0 0 0 -0.15100000000000002,-0.06300000000000001 h-0.8280000000000001 a0.21200000000000002,0.21200000000000002 0 0 0 -0.21200000000000002,0.21200000000000002 V19.66300186157227 a0.21200000000000002,0.21200000000000002 0 0 0 0.21200000000000002,0.21200000000000002 h0.786 a0.21200000000000002,0.21200000000000002 0 0 0 0.21200000000000002,-0.21200000000000002 V7.448001861572266 l5.022,5.021 L10.418000610351562,13.948001861572266 A2.834,2.834 0 0 0 12.760000610351561,13.318001861572263 c0.6550000000000001,0.6560000000000001 1.336,0.6310000000000001 2.3360000000000003,0.6310000000000001 l-1.485,-1.484 L18.630000610351566,7.438001861572268 V19.664001861572267 a0.21200000000000002,0.21200000000000002 0 0 0 0.21200000000000002,0.21200000000000002 h0.808 A0.21200000000000002,0.21200000000000002 0 0 0 19.860000610351562,19.664001861572267 V5.870001861572263 a0.21200000000000002,0.21200000000000002 0 0 0 -0.21200000000000002,-0.21200000000000002 zM11.960000610351564,14.873001861572263 a0.811,0.811 0 1 0 0.811,-0.811 a0.811,0.811 0 0 0 -0.811,0.811 " class="selected" fill="#ffffff" fill-opacity="1"/></g></svg>