<svg xmlns="http://www.w3.org/2000/svg" xmlns:xlink="http://www.w3.org/1999/xlink" width="74.211" height="55.268" viewBox="0 0 74.211 55.268">
  <defs>
    <linearGradient id="linear-gradient" x1="0.5" x2="0.5" y2="1" gradientUnits="objectBoundingBox">
      <stop offset="0" stop-color="#c9107a"/>
      <stop offset="1" stop-color="#9a0162"/>
    </linearGradient>
  </defs>
  <g id="Group_1191" data-name="Group 1191" transform="translate(140.099 -588.662)">
    <g id="Group_1188" data-name="Group 1188">
      <path id="Path_333" data-name="Path 333" d="M-122.091,601.878a81.761,81.761,0,0,0,17.906-4.817,81.773,81.773,0,0,0,17.907,4.817v6.5h7.739V594.495l-3.744-.249a71.781,71.781,0,0,1-20.324-4.908l-1.578-.676-1.58.678a71.351,71.351,0,0,1-20.321,4.906l-3.745.249V608.38h7.74Z" fill="url(#linear-gradient)"/>
      <path id="Path_334" data-name="Path 334" d="M-94.62,629.189l-9.565,5.724-9.564-5.724a16.922,16.922,0,0,1-7.066-8.144h-8.166a25,25,0,0,0,11.458,15.066l13.338,7.819,13.339-7.819a25,25,0,0,0,11.458-15.066h-8.166A16.922,16.922,0,0,1-94.62,629.189Z" fill="url(#linear-gradient)"/>
    </g>
    <g id="Group_1190" data-name="Group 1190">
      <g id="Group_1189" data-name="Group 1189">
        <path id="Path_335" data-name="Path 335" d="M-140.1,610.461h2.3v8.246h-2.3Z" fill="url(#linear-gradient)"/>
        <path id="Path_336" data-name="Path 336" d="M-136,610.461h2.132l3.393,4.358v-4.358h2.261v8.246h-2l-3.522-4.524v4.524H-136Z" fill="url(#linear-gradient)"/>
        <path id="Path_337" data-name="Path 337" d="M-127.09,617.481l1.272-1.519a4.248,4.248,0,0,0,2.674.99c.612,0,.943-.212.943-.565v-.024c0-.342-.271-.53-1.391-.79-1.754-.4-3.109-.894-3.109-2.591v-.024c0-1.531,1.213-2.639,3.192-2.639a5.185,5.185,0,0,1,3.392,1.1l-1.142,1.614a4.137,4.137,0,0,0-2.309-.812c-.553,0-.824.235-.824.529v.024c0,.377.282.541,1.425.8,1.9.412,3.074,1.025,3.074,2.568v.024c0,1.684-1.331,2.686-3.333,2.686A5.756,5.756,0,0,1-127.09,617.481Z" fill="url(#linear-gradient)"/>
        <path id="Path_338" data-name="Path 338" d="M-118.6,615.091v-4.63h2.32v4.583c0,1.189.6,1.755,1.52,1.755s1.519-.542,1.519-1.7v-4.641h2.321v4.571c0,2.662-1.519,3.828-3.863,3.828S-118.6,617.671-118.6,615.091Z" fill="url(#linear-gradient)"/>
        <path id="Path_339" data-name="Path 339" d="M-109.277,610.461h3.9a3.6,3.6,0,0,1,2.686.9,2.557,2.557,0,0,1,.73,1.92v.024a2.609,2.609,0,0,1-1.7,2.533l1.967,2.874h-2.638l-1.661-2.5h-1v2.5h-2.285Zm3.793,3.958c.778,0,1.225-.377,1.225-.978v-.023c0-.648-.471-.978-1.236-.978h-1.5v1.979Z" fill="url(#linear-gradient)"/>
        <path id="Path_340" data-name="Path 340" d="M-97.808,610.4h2.2l3.51,8.3h-2.45l-.6-1.473h-3.18l-.589,1.473h-2.4Zm2,5.054-.919-2.345-.931,2.345Z" fill="url(#linear-gradient)"/>
        <path id="Path_341" data-name="Path 341" d="M-91,610.461h2.132l3.393,4.358v-4.358h2.261v8.246h-2l-3.522-4.524v4.524H-91Z" fill="url(#linear-gradient)"/>
        <path id="Path_342" data-name="Path 342" d="M-81.751,614.607v-.023A4.236,4.236,0,0,1-77.4,610.3a4.037,4.037,0,0,1,3.5,1.72l-1.719,1.332a2.206,2.206,0,0,0-1.8-.967,2.039,2.039,0,0,0-1.967,2.179v.024a2.04,2.04,0,0,0,1.967,2.2,2.25,2.25,0,0,0,1.861-1l1.721,1.225a4.16,4.16,0,0,1-3.652,1.861A4.188,4.188,0,0,1-81.751,614.607Z" fill="url(#linear-gradient)"/>
        <path id="Path_343" data-name="Path 343" d="M-72.579,610.461h6.631v1.944h-4.37v1.248h3.958v1.8h-3.958v1.308h4.43v1.943h-6.691Z" fill="url(#linear-gradient)"/>
      </g>
    </g>
  </g>
</svg>
