<svg xmlns="http://www.w3.org/2000/svg" xmlns:xlink="http://www.w3.org/1999/xlink" width="54.085" height="56.215" viewBox="0 0 54.085 56.215">
  <defs>
    <linearGradient id="linear-gradient" x1="0.5" x2="0.5" y2="1" gradientUnits="objectBoundingBox">
      <stop offset="0" stop-color="#c9107a"/>
      <stop offset="1" stop-color="#9a0162"/>
    </linearGradient>
  </defs>
  <g id="Group_1225" data-name="Group 1225" transform="translate(201.142 79.693)">
    <text id="DEDUCTION" transform="translate(-201.142 -25.478)" fill="#9e0264" font-size="8" font-family="SegoeUI, Segoe UI"><tspan x="0" y="0">DEDUCTION</tspan></text>
    <g id="Group_1224" data-name="Group 1224" transform="translate(-200.469 -79.693)">
      <path id="Path_379" data-name="Path 379" d="M-178.239-53.971a8.288,8.288,0,0,1,8.288-8.288h.018q-.093-7.984-4.114-12.652-4.127-4.787-11.2-4.782-7.09,0-11.2,4.782t-4.1,13.022v9.444q0,8.268,4.1,13.066,4.11,4.819,11.2,4.813t11.2-4.813a16.184,16.184,0,0,0,3.289-6.343A8.287,8.287,0,0,1-178.239-53.971Zm-2.848,4.041c0,4.383-2.6,5.037-4.156,5.037s-4.135-.654-4.135-5.037V-64.415c0-4.364,2.592-5.016,4.135-5.016s4.156.652,4.156,5.016Z" transform="translate(200.543 79.693)" fill="url(#linear-gradient)"/>
    </g>
    <path id="Path_380" data-name="Path 380" d="M-156.138-46.675a2.674,2.674,0,0,0-1.965.816,2.7,2.7,0,0,0-.81,1.965,2.715,2.715,0,0,0,.81,1.988,2.671,2.671,0,0,0,1.965.817,2.675,2.675,0,0,0,1.965-.817,2.719,2.719,0,0,0,.809-1.988,2.7,2.7,0,0,0-.809-1.965,2.678,2.678,0,0,0-1.965-.816Zm.012-3.554a6.089,6.089,0,0,1,4.461,1.861,6.116,6.116,0,0,1,1.855,4.485,6.113,6.113,0,0,1-1.855,4.484,6.09,6.09,0,0,1-4.461,1.862,6.109,6.109,0,0,1-4.48-1.862,6.12,6.12,0,0,1-1.861-4.484,6.122,6.122,0,0,1,1.861-4.485,6.108,6.108,0,0,1,4.48-1.861Zm-12.782,11.436.018-.044-.018.044Zm11.359-22.814-10.01,24.821h-4.328q5.316-13.1,10.631-26.2h4.262l-.555,1.376Zm-14.928,2.856a2.727,2.727,0,0,0-1.976.81,2.671,2.671,0,0,0-.817,1.965,2.675,2.675,0,0,0,.817,1.965,2.732,2.732,0,0,0,1.976.81,2.725,2.725,0,0,0,1.977-.81,2.678,2.678,0,0,0,.816-1.965,2.674,2.674,0,0,0-.816-1.965,2.721,2.721,0,0,0-1.977-.81Zm-.006-3.554a6.157,6.157,0,0,1,4.491,1.85,6.078,6.078,0,0,1,1.861,4.466,6.1,6.1,0,0,1-1.856,4.491,6.139,6.139,0,0,1-4.5,1.85,6.112,6.112,0,0,1-4.485-1.862,6.1,6.1,0,0,1-1.856-4.479,6.088,6.088,0,0,1,1.862-4.461,6.12,6.12,0,0,1,4.479-1.856Z" transform="translate(2.753 2.061)" fill="url(#linear-gradient)"/>
  </g>
</svg>
